<?xml version="1.0" encoding="UTF-8"?>
<svg version="1.1" xmlns="http://www.w3.org/2000/svg" width="1024" height="1024">

<path d="M0 0 C0.72867279 -0.00100708 1.45734558 -0.00201416 2.20809937 -0.00305176 C23.93606345 0.01697374 45.48515839 2.10033323 66.73144531 6.75585938 C68.86632349 7.22088234 71.00540193 7.65260139 73.1484375 8.078125 C107.37044157 15.1665256 142.65114759 30.81245524 171 51.25 C171.5882959 51.6713623 172.1765918 52.09272461 172.78271484 52.52685547 C184.07252688 60.62963267 194.88339698 69.05946727 205.0625 78.53515625 C207.6711205 80.94604886 210.32496834 83.28863421 213 85.625 C223.00624267 94.6386234 231.54555931 104.87851632 239.69726562 115.56201172 C240.92622463 117.15440725 242.18872016 118.72075727 243.453125 120.28515625 C277.27978147 162.56847684 296.23769988 216.17378485 301.71777344 269.59545898 C301.88906043 271.20653465 302.07560588 272.81621677 302.29003906 274.42211914 C303.27197845 281.89664876 303.24287642 289.41132849 303.25 296.9375 C303.25100708 297.67866058 303.25201416 298.41982117 303.25305176 299.18344116 C303.23320953 321.00434621 301.16925445 342.64576666 296.49414062 363.98144531 C296.02911766 366.11632349 295.59739861 368.25540193 295.171875 370.3984375 C286.69906574 411.30421151 266.4511792 450.41426333 241 483.25 C240.35546875 484.08917969 239.7109375 484.92835938 239.046875 485.79296875 C234.54123445 491.55322872 229.69737725 496.95920853 224.71875 502.30859375 C222.27984172 504.93110332 219.92056993 507.61695267 217.5625 510.3125 C212.41274039 516.03954583 206.78300506 521.17963682 201 526.25 C199.63101563 527.45076172 199.63101563 527.45076172 198.234375 528.67578125 C183.22084957 541.48760253 167.17297348 552.54742476 150 562.25 C149.24315918 562.6826416 148.48631836 563.1152832 147.70654297 563.56103516 C112.98044324 583.25 112.98044324 583.25 103 583.25 C102.99635437 582.54335709 102.99270874 581.83671417 102.98895264 581.10865784 C102.95092267 574.41535014 102.89390189 567.72249656 102.81609726 561.02952671 C102.77676157 557.58940927 102.7445059 554.14954246 102.72900391 550.70922852 C102.71081759 546.74462747 102.6608053 542.78072058 102.609375 538.81640625 C102.60753204 536.9830648 102.60753204 536.9830648 102.60565186 535.11268616 C102.48358661 527.92863523 101.58592906 522.50884248 98 516.25 C97.45904694 515.22798241 97.45904694 515.22798241 96.90716553 514.18531799 C92.6600263 507.36056941 85.43065737 503.77979967 78 501.25 C72.91443138 500.35502244 67.9299492 500.31668438 62.78393555 500.3918457 C61.31864734 500.38725749 59.85336603 500.3796431 58.3881073 500.36927795 C54.45405801 500.35038421 50.52140968 500.37467317 46.5875051 500.40851617 C42.44912098 500.43766989 38.3107806 500.4297582 34.1723175 500.42704773 C27.23175182 500.4280336 20.29172444 500.45629377 13.35131836 500.50219727 C5.34625352 500.55490591 -2.65814323 500.5688574 -10.6633628 500.5611642 C-18.39698133 500.55423357 -26.13037582 500.57013932 -33.8639431 500.59792137 C-37.14164207 500.60957488 -40.41923605 500.61417213 -43.69695473 500.61312294 C-47.55753669 500.61324941 -51.4175108 500.63373129 -55.27792168 500.66951561 C-56.68833385 500.67953782 -58.09881225 500.68293637 -59.50925446 500.67897034 C-67.56204127 500.66127924 -73.97005635 501.13020508 -81 505.25 C-81.80953125 505.71921875 -82.6190625 506.1884375 -83.453125 506.671875 C-90.16672921 511.6341042 -93.6455769 517.27220209 -96 525.25 C-96.32077383 528.19541518 -96.32077383 528.19541518 -96.31884766 531.25537109 C-96.34865219 532.99649673 -96.34865219 532.99649673 -96.37905884 534.77279663 C-96.39061005 536.01050812 -96.40216125 537.2482196 -96.4140625 538.5234375 C-96.43342865 539.80231842 -96.4527948 541.08119934 -96.4727478 542.39883423 C-96.52228279 545.78207162 -96.56360235 549.16520382 -96.60089111 552.54858398 C-96.64105483 556.00774773 -96.69209044 559.46674963 -96.7421875 562.92578125 C-96.83810704 569.70041644 -96.9231921 576.47512263 -97 583.25 C-127.13128022 573.38072768 -155.11106944 557.83781393 -180 538.25 C-180.83273437 537.60933594 -181.66546875 536.96867188 -182.5234375 536.30859375 C-188.35308937 531.75705168 -193.79359958 526.85815513 -199.203125 521.82421875 C-201.38610912 519.81501968 -203.59514556 517.89500722 -205.875 516 C-216.37495774 506.85346717 -225.3434848 495.97264525 -233.72949219 484.90576172 C-234.94258835 483.32482048 -236.19315901 481.77284628 -237.4453125 480.22265625 C-254.39719061 459.04643552 -267.09405811 434.40608885 -277 409.25 C-277.2985791 408.51168945 -277.5971582 407.77337891 -277.90478516 407.01269531 C-286.93741652 384.59601781 -292.02201462 361.17871438 -295 337.25 C-295.11714355 336.35104004 -295.23428711 335.45208008 -295.35498047 334.52587891 C-296.90284231 322.27868082 -297.17747766 310.07747767 -297.1875 297.75 C-297.18858765 297.03320068 -297.18967529 296.31640137 -297.1907959 295.57788086 C-297.18829748 281.0687502 -296.19468482 266.9421347 -293.75 252.625 C-293.63951324 251.97392273 -293.52902649 251.32284546 -293.41519165 250.65203857 C-285.12242288 202.06264966 -265.55407615 156.07302958 -235 117.25 C-234.35933594 116.41726563 -233.71867187 115.58453125 -233.05859375 114.7265625 C-228.50705168 108.89691063 -223.60815513 103.45640042 -218.57421875 98.046875 C-216.56501968 95.86389088 -214.64500722 93.65485444 -212.75 91.375 C-203.65082292 80.92940531 -192.83085062 71.9435054 -181.80224609 63.61962891 C-179.94277614 62.20651235 -178.10564202 60.76752261 -176.26953125 59.32421875 C-166.0454338 51.36595334 -155.2762487 44.61555545 -144 38.25 C-143.1740332 37.78207031 -142.34806641 37.31414062 -141.49707031 36.83203125 C-109.37841907 18.83853028 -75.04753867 8.43211793 -38.875 2.5 C-38.17858398 2.38430664 -37.48216797 2.26861328 -36.76464844 2.14941406 C-24.60384544 0.27545426 -12.28288278 0.01197935 0 0 Z " fill="#FEFEFE" transform="translate(509,161.75)"/>
<path d="M0 0 C106 0 106 0 123 2 C124.93875 2.226875 126.8775 2.45375 128.875 2.6875 C147.84075561 6.01436597 166.40203357 15.24607594 177.875 31 C186.23928624 43.84094648 188.246499 57.34484722 188.3125 72.4375 C188.31797852 73.34846436 188.32345703 74.25942871 188.32910156 75.19799805 C188.17529276 89.71569268 183.37246428 102.87138554 173.5625 113.6875 C172.716875 114.450625 171.87125 115.21375 171 116 C170.28457031 116.70382812 170.28457031 116.70382812 169.5546875 117.421875 C162.92861983 123.63181282 154.58580121 127.29540883 146 130 C149.53746333 131.95934686 153.20164235 133.01766413 157.0625 134.1875 C174.30687988 139.71591301 185.71160533 151.04078661 194.25 166.6875 C202.5860704 184.20662121 202.26860688 205.85591531 196 224 C192.41890443 233.47149575 187.25904051 240.98768896 180 248 C179.41347656 248.57234375 178.82695313 249.1446875 178.22265625 249.734375 C135.44123024 288.79130039 35.0530378 270 0 270 C0 180.9 0 91.8 0 0 Z " fill="#1B1B1B" transform="translate(428,327)"/>
<path d="M0 0 C1.21406021 -0.00571014 2.42812042 -0.01142029 3.67897034 -0.01730347 C5.02651967 -0.01854881 6.37406912 -0.01967391 7.72161865 -0.02069092 C9.13925811 -0.02531974 10.55689632 -0.03034449 11.97453308 -0.03573608 C15.82800786 -0.04885735 19.68146521 -0.0553047 23.53495884 -0.05974674 C25.94331916 -0.06267838 28.35167473 -0.06678339 30.76003265 -0.07125092 C38.29761077 -0.08492616 45.83517802 -0.09459225 53.37276769 -0.09845281 C62.06911402 -0.10293145 70.765303 -0.12047019 79.4616015 -0.1494534 C86.18613514 -0.17108569 92.91062457 -0.18115794 99.63519263 -0.18249393 C103.65010867 -0.183541 107.66487681 -0.18942777 111.67975616 -0.20731354 C115.45874812 -0.22382067 119.23748144 -0.22593703 123.01649666 -0.21717453 C124.40036526 -0.21640552 125.78424791 -0.22072895 127.16808128 -0.23063278 C135.76768346 -0.28854838 142.06891706 -0.30271744 148.86907959 5.39044189 C155.4983835 13.27393844 155.75768763 18.97899484 155.68328857 29.13458252 C155.68707583 30.55281611 155.69257921 31.971046 155.69966125 33.38926697 C155.71358043 37.2261354 155.70247132 41.06255363 155.68595004 44.8993969 C155.67205966 48.92266026 155.67856415 52.94589854 155.68208313 56.96917725 C155.68478211 63.72441834 155.67133661 70.47948144 155.64813232 77.23468018 C155.62152449 85.03449541 155.61977663 92.83401313 155.63152069 100.6338582 C155.6423158 108.15010398 155.63609782 115.66624258 155.62196541 123.18247986 C155.61622062 126.37530565 155.61627639 129.56805262 155.62103081 132.76087952 C155.62581812 136.52355904 155.61562683 140.28591454 155.59407616 144.04853249 C155.58589599 146.08079609 155.59234134 148.11310224 155.59927368 150.14537048 C155.52592933 159.17627153 154.5931588 165.35171096 148.18157959 172.14044189 C143.20517429 175.6239256 139.24579137 176.26332897 133.24963379 176.28761292 C132.03564407 176.29476822 130.82165436 176.30192352 129.57087708 176.30929565 C128.2285464 176.31213569 126.88621545 176.31484745 125.54388428 176.31744385 C124.12771947 176.3237116 122.71155629 176.33035867 121.2953949 176.33735657 C116.64809303 176.35836182 112.00079097 176.36875544 107.35345459 176.37872314 C105.75136549 176.38277198 104.14927656 176.38688894 102.54718781 176.39107323 C95.01975883 176.4101169 87.49233962 176.42434982 79.9648912 176.4326852 C71.28549845 176.44245579 62.60636084 176.46877397 53.92705798 176.50918609 C47.21183139 176.53937671 40.49667783 176.55415684 33.78138471 176.55746621 C29.77366379 176.55981327 25.76621572 176.56872868 21.75856781 176.59392738 C17.98607154 176.61726508 14.21402667 176.62141877 10.44147682 176.611166 C9.06124428 176.61067191 7.68098908 176.61695486 6.30082512 176.63072205 C-2.4230227 176.71283482 -9.31592569 176.51478211 -15.87701416 170.14044189 C-16.33205322 169.48044189 -16.78709229 168.82044189 -17.25592041 168.14044189 C-17.72900635 167.48044189 -18.20209229 166.82044189 -18.68951416 166.14044189 C-20.87875108 162.2619322 -20.94906257 158.6140673 -20.97232056 154.21522522 C-20.98092102 153.00268066 -20.98952148 151.79013611 -20.99838257 150.54084778 C-21.00281741 149.20010419 -21.0071158 147.85936014 -21.0112915 146.51861572 C-21.01919681 145.10407309 -21.02746603 143.68953244 -21.03607178 142.2749939 C-21.06224356 137.63250644 -21.07759514 132.99001019 -21.09185791 128.34747314 C-21.09721969 126.74664492 -21.1025972 125.14581675 -21.10799026 123.54498863 C-21.12961239 116.88375663 -21.14834739 110.222527 -21.15961266 103.56126881 C-21.17584191 94.02891491 -21.20900214 84.49696922 -21.2660135 74.96476918 C-21.30477205 68.25462464 -21.32425235 61.54458901 -21.32953322 54.83433551 C-21.33317877 50.83042456 -21.34511442 46.82694949 -21.37763596 42.82316017 C-21.40782114 39.05305505 -21.41399185 35.28364716 -21.4022522 31.51344681 C-21.40192802 29.48145751 -21.42632407 27.44951057 -21.45162964 25.41767883 C-21.40058737 17.8909832 -20.6665764 12.11921662 -15.81842041 6.14044189 C-10.89696215 1.65688054 -6.58736203 0.01853108 0 0 Z " fill="#FEFEFE" transform="translate(444.81842041015625,673.8595581054688)"/>
<path d="M0 0 C20.8828125 -0.061875 20.8828125 -0.061875 42.1875 -0.125 C46.55895264 -0.14320801 50.93040527 -0.16141602 55.43432617 -0.18017578 C60.83459473 -0.18920898 60.83459473 -0.18920898 63.37471008 -0.19088745 C65.12248253 -0.19392842 66.87025119 -0.20089868 68.61799622 -0.21115112 C88.49752829 -0.32178403 106.49730027 1.01094969 122 15 C132.24347507 26.77906 133.04392904 38.34813531 132.24560547 53.34716797 C131.28803807 63.69003813 125.46439657 71.1649792 118 78 C103.67931338 89.54162268 85.06833483 89.29436643 67.67578125 89.1953125 C65.9395765 89.19236608 64.20336997 89.19032933 62.46716309 89.18920898 C56.08224802 89.17879107 49.69737116 89.15086868 43.3125 89.125 C29.019375 89.08375 14.72625 89.0425 0 89 C0 59.63 0 30.26 0 0 Z " fill="#FEFEFE" transform="translate(461,476)"/>
<path d="M0 0 C12.08625 -0.061875 24.1725 -0.12375 36.625 -0.1875 C40.41307129 -0.21481201 44.20114258 -0.24212402 48.10400391 -0.27026367 C52.80151367 -0.28381348 52.80151367 -0.28381348 55.01449585 -0.28633118 C56.529741 -0.29087785 58.0449767 -0.30130091 59.56015015 -0.31672668 C78.4941522 -0.49951762 97.71643939 2.35892291 112.125 15.6875 C120.22265008 24.00191317 121.27561592 33.54948781 121.1484375 44.75390625 C120.6813716 54.96789999 116.97906389 64.18372576 109.37890625 71.2421875 C106.28127184 73.53107992 103.02864632 75.40325354 99.625 77.1875 C98.73590942 77.66908569 98.73590942 77.66908569 97.82885742 78.16040039 C84.7366562 84.62220211 70.46615551 85.58973565 56.15234375 85.390625 C54.70024232 85.3847178 53.24813224 85.38065322 51.79602051 85.37841797 C46.5097141 85.35774815 41.22359197 85.30190662 35.9375 85.25 C24.078125 85.1675 12.21875 85.085 0 85 C0 56.95 0 28.9 0 0 Z " fill="#FEFEFE" transform="translate(461,359)"/>
<path d="M0 0 C10.79886286 5.10769505 19.24560003 13.78966397 23.72607422 24.87426758 C29.13035932 42.89973191 27.18940592 63.87515961 26.15478516 82.43164062 C26.10013092 83.48007519 26.10013092 83.48007519 26.04437256 84.54969025 C25.24316901 98.68830203 25.24316901 98.68830203 20.70947266 104.15429688 C14.26972386 109.7200636 6.25178906 108.75457098 -1.82177734 108.72070312 C-3.34200418 108.72594475 -4.86222777 108.73222319 -6.38244629 108.73948669 C-9.55980801 108.74986395 -12.73672112 108.74536785 -15.9140625 108.73071289 C-19.97284731 108.71351853 -24.03021725 108.73704045 -28.0888443 108.77220249 C-31.22545638 108.79422893 -34.36173249 108.7927227 -37.49839783 108.78443718 C-38.99423272 108.78362071 -40.49009303 108.79042572 -41.9858551 108.80520821 C-55.08362498 108.91483652 -55.08362498 108.91483652 -59.57373047 105.98999023 C-64.859781 100.47260373 -65.73726161 95.73035907 -65.71044922 88.41430664 C-65.71891876 87.55660675 -65.72738831 86.69890686 -65.7361145 85.81521606 C-65.75943276 82.99189251 -65.76050794 80.16911553 -65.75927734 77.34570312 C-65.76638169 75.37564375 -65.7740811 73.40558645 -65.78234863 71.43553162 C-65.79578131 67.31072229 -65.79736749 63.18610434 -65.79150391 59.0612793 C-65.78560693 53.78409389 -65.81620516 48.50782819 -65.85662079 43.23082066 C-65.88251049 39.16349875 -65.88537408 35.09639799 -65.88172913 31.02900505 C-65.88341897 29.08379745 -65.89304837 27.13857949 -65.91087341 25.19345284 C-65.93309014 22.46957497 -65.92334827 19.74755491 -65.90576172 17.02368164 C-65.91902496 16.22605911 -65.93228821 15.42843658 -65.94595337 14.60664368 C-65.85977531 8.84177279 -64.17849848 5.3965094 -60.29052734 1.15429688 C-48.15239508 -9.23944955 -13.72285401 -5.39249484 0 0 Z " fill="#FEFEFE" transform="translate(532.29052734375,708.845703125)"/>
<path d="M0 0 C10.79886286 5.10769505 19.24560003 13.78966397 23.72607422 24.87426758 C29.13035932 42.89973191 27.18940592 63.87515961 26.15478516 82.43164062 C26.10013092 83.48007519 26.10013092 83.48007519 26.04437256 84.54969025 C25.24316901 98.68830203 25.24316901 98.68830203 20.70947266 104.15429688 C14.26972386 109.7200636 6.25178906 108.75457098 -1.82177734 108.72070312 C-3.34200418 108.72594475 -4.86222777 108.73222319 -6.38244629 108.73948669 C-9.55980801 108.74986395 -12.73672112 108.74536785 -15.9140625 108.73071289 C-19.97284731 108.71351853 -24.03021725 108.73704045 -28.0888443 108.77220249 C-31.22545638 108.79422893 -34.36173249 108.7927227 -37.49839783 108.78443718 C-38.99423272 108.78362071 -40.49009303 108.79042572 -41.9858551 108.80520821 C-55.08362498 108.91483652 -55.08362498 108.91483652 -59.57373047 105.98999023 C-64.859781 100.47260373 -65.73726161 95.73035907 -65.71044922 88.41430664 C-65.71891876 87.55660675 -65.72738831 86.69890686 -65.7361145 85.81521606 C-65.75943276 82.99189251 -65.76050794 80.16911553 -65.75927734 77.34570312 C-65.76638169 75.37564375 -65.7740811 73.40558645 -65.78234863 71.43553162 C-65.79578131 67.31072229 -65.79736749 63.18610434 -65.79150391 59.0612793 C-65.78560693 53.78409389 -65.81620516 48.50782819 -65.85662079 43.23082066 C-65.88251049 39.16349875 -65.88537408 35.09639799 -65.88172913 31.02900505 C-65.88341897 29.08379745 -65.89304837 27.13857949 -65.91087341 25.19345284 C-65.93309014 22.46957497 -65.92334827 19.74755491 -65.90576172 17.02368164 C-65.91902496 16.22605911 -65.93228821 15.42843658 -65.94595337 14.60664368 C-65.85977531 8.84177279 -64.17849848 5.3965094 -60.29052734 1.15429688 C-48.15239508 -9.23944955 -13.72285401 -5.39249484 0 0 Z M-53.99983215 9.17533875 C-56.03171417 12.29072141 -55.70709956 15.55877949 -55.67871094 19.15820312 C-55.6839679 19.97312225 -55.68922485 20.78804138 -55.69464111 21.62765503 C-55.70785636 24.32423001 -55.69909778 27.02021578 -55.68896484 29.71679688 C-55.69098514 31.5886242 -55.69389621 33.46045076 -55.69766235 35.33227539 C-55.70208777 39.25642384 -55.69564766 43.18036752 -55.68164062 47.10449219 C-55.66454861 52.13870035 -55.67438863 57.17242871 -55.69235802 62.20661926 C-55.70318999 66.07218044 -55.69975222 69.93762756 -55.69197464 73.80319214 C-55.68997101 75.65957699 -55.69243761 77.51597214 -55.6994133 79.37234497 C-55.70701816 81.96530657 -55.69543749 84.5574873 -55.67871094 87.15039062 C-55.68478363 87.9203537 -55.69085632 88.69031677 -55.69711304 89.48361206 C-55.66269788 92.35813841 -55.60646265 94.60608584 -54.15176392 97.13027954 C-51.42753083 98.62910131 -49.22385603 98.53587876 -46.12255859 98.54248047 C-44.21543091 98.55666519 -44.21543091 98.55666519 -42.26977539 98.57113647 C-40.88085621 98.56576678 -39.49193987 98.55961384 -38.10302734 98.55273438 C-36.6796046 98.55475526 -35.25618287 98.55766683 -33.83276367 98.56143188 C-30.8501601 98.56585459 -27.86782613 98.55942623 -24.88525391 98.54541016 C-21.06167644 98.5283179 -17.23873068 98.53815943 -13.41517639 98.55612755 C-10.47606647 98.56696706 -7.53710637 98.56351836 -4.59799194 98.55574417 C-3.1881808 98.55374261 -1.77835606 98.55619994 -0.36856079 98.56318283 C1.60145814 98.57079911 3.57152474 98.55713266 5.54150391 98.54248047 C6.66274658 98.54009369 7.78398926 98.53770691 8.93920898 98.5352478 C11.67921797 98.35290307 11.67921797 98.35290307 13.57368469 96.97834778 C15.16076262 94.42953496 15.06987806 92.57551234 15.05004883 89.58129883 C15.04982224 88.44034256 15.04959564 87.29938629 15.04936218 86.12385559 C15.03387833 84.89253403 15.01839447 83.66121246 15.00244141 82.39257812 C14.99819656 81.13164841 14.99395172 79.87071869 14.98957825 78.57157898 C14.97561893 75.22254744 14.9486737 71.87412929 14.91546631 68.52526855 C14.88475372 65.10674432 14.87090597 61.68815479 14.85595703 58.26953125 C14.82539448 51.5641075 14.76667565 44.85975848 14.70947266 38.15429688 C5.13947266 37.82429687 -4.43052734 37.49429688 -14.29052734 37.15429688 C-14.62052734 27.58429687 -14.95052734 18.01429688 -15.29052734 8.15429688 C-20.50545846 8.08544448 -25.71881446 8.02570734 -30.93383789 7.98950195 C-32.70798077 7.97441046 -34.48208633 7.95393496 -36.25610352 7.92797852 C-38.80543222 7.89161047 -41.35426793 7.87457449 -43.90380859 7.86132812 C-45.09457756 7.83810234 -45.09457756 7.83810234 -46.30940247 7.81440735 C-50.32823077 7.7573087 -50.32823077 7.7573087 -53.99983215 9.17533875 Z " fill="#1B1B1B" transform="translate(532.29052734375,708.845703125)"/>
<path d="M0 0 C0.87107895 -0.00953201 1.7421579 -0.01906403 2.63963318 -0.02888489 C3.58234573 -0.02797348 4.52505829 -0.02706207 5.49633789 -0.02612305 C6.94635948 -0.03255074 6.94635948 -0.03255074 8.42567444 -0.03910828 C10.47257707 -0.04485792 12.51950013 -0.04534719 14.56640625 -0.04101562 C17.70290927 -0.03785799 20.83846738 -0.06129901 23.97485352 -0.08666992 C25.96118045 -0.08894303 27.94750992 -0.08964636 29.93383789 -0.08862305 C31.34487038 -0.10243767 31.34487038 -0.10243767 32.78440857 -0.11653137 C33.65863968 -0.11030258 34.53287079 -0.10407379 35.43359375 -0.09765625 C36.20255478 -0.09828568 36.97151581 -0.0989151 37.76377869 -0.0995636 C40.32590555 0.37562914 41.24097609 1.20184631 42.78149414 3.2746582 C42.5369629 6.61658513 42.17605857 7.88009378 39.78149414 10.2746582 C37.89076233 10.53535461 37.89076233 10.53535461 35.56298828 10.54931641 C34.69190933 10.55884842 33.82083038 10.56838043 32.9233551 10.57820129 C31.98064255 10.57728989 31.03792999 10.57637848 30.06665039 10.57543945 C29.09996933 10.57972458 28.13328827 10.5840097 27.13731384 10.58842468 C25.09041122 10.59417432 23.04348815 10.5946636 20.99658203 10.59033203 C17.86007901 10.5871744 14.7245209 10.61061542 11.58813477 10.63598633 C9.60180783 10.63825944 7.61547836 10.63896276 5.62915039 10.63793945 C4.68846207 10.6471492 3.74777374 10.65635895 2.77857971 10.66584778 C1.9043486 10.65961899 1.03011749 10.6533902 0.12939453 10.64697266 C-1.02404701 10.64791679 -1.02404701 10.64791679 -2.20079041 10.64888 C-4.76291727 10.17368727 -5.67798781 9.3474701 -7.21850586 7.2746582 C-6.8344355 2.02569661 -5.24110714 0.03143572 0 0 Z " fill="#1B1B1B" transform="translate(494.218505859375,761.725341796875)"/>
<path d="M0 0 C1.11439453 0.00322266 2.22878906 0.00644531 3.37695312 0.00976562 C4.48748047 -0.00634766 5.59800781 -0.02246094 6.7421875 -0.0390625 C8.33836914 -0.0400293 8.33836914 -0.0400293 9.96679688 -0.04101562 C11.43234009 -0.04548706 11.43234009 -0.04548706 12.92749023 -0.05004883 C15.43945312 0.32226562 15.43945312 0.32226562 17.29321289 1.68481445 C18.43945312 3.32226562 18.43945312 3.32226562 18.25195312 5.88476562 C17.43945312 8.32226562 17.43945312 8.32226562 15.43945312 10.32226562 C11.47896491 10.7788236 7.48571503 10.64628605 3.50195312 10.63476562 C1.83616211 10.65893555 1.83616211 10.65893555 0.13671875 10.68359375 C-0.92740234 10.68423828 -1.99152344 10.68488281 -3.08789062 10.68554688 C-4.06491943 10.68852783 -5.04194824 10.69150879 -6.04858398 10.69458008 C-8.56054688 10.32226562 -8.56054688 10.32226562 -10.41430664 8.9597168 C-11.56054688 7.32226562 -11.56054688 7.32226562 -11.37304688 4.75976562 C-9.42764794 -1.07643118 -5.31447718 0.03545133 0 0 Z " fill="#1C1C1C" transform="translate(498.560546875,781.677734375)"/>
<path d="M0 0 C5.27002208 4.39168507 10.35302051 8.9426379 15 14 C15 14.33 15 14.66 15 15 C10.05 15 5.1 15 0 15 C0 10.05 0 5.1 0 0 Z " fill="#F9F9F9" transform="translate(527,722)"/>
</svg>
